
<svg xmlns="http://www.w3.org/2000/svg" xmlns:xlink="http://www.w3.org/1999/xlink"><defs><symbol id="icon-moxy-square-07d2d" viewBox="0 0 108 99"><style>.moxy-square__st0___1NFjv{fill:url(#moxy-square__SVGID_1____3nXyZ)}.moxy-square__st1___dEk3u{fill:url(#moxy-square__SVGID_2____Hqmc9)}.moxy-square__st2___1D98W{fill:#241b69}.moxy-square__st3___2-rVC{fill:#2932d2}.moxy-square__st4___3U5VR{fill:url(#moxy-square__SVGID_3____18qVw)}.moxy-square__st5___1se9n{fill:url(#moxy-square__SVGID_4____1OuBH)}.moxy-square__st6___1dnoM{fill:#220d41}.moxy-square__st7___369xJ{fill:url(#moxy-square__SVGID_5____20Zau)}</style><linearGradient id="moxy-square__SVGID_1____3nXyZ" gradientUnits="userSpaceOnUse" x1="36.426" y1="66.082" x2="15.116" y2="46.894"><stop offset=".002" stop-color="#DD1A40"/><stop offset=".965" stop-color="#FD5557"/></linearGradient><path class="moxy-square__st0___1NFjv" d="M7 55.9c.5-.5 1.2-.8 2-.8h34.5c.8 0 1.5.3 2 .8.3.3-19.3 19.3-19.3 19.3S6.7 56.2 7 55.9z"/><linearGradient id="moxy-square__SVGID_2____Hqmc9" gradientUnits="userSpaceOnUse" x1="-36.096" y1="-539.472" x2="2.432" y2="-539.472" gradientTransform="rotate(90 -297.618 -205.576)"><stop offset=".002" stop-color="#E73F4F"/><stop offset=".785" stop-color="#FC5457"/><stop offset=".965" stop-color="#FD5557"/></linearGradient><path class="moxy-square__st1___dEk3u" d="M45.5 55.9c.5.5.8 1.2.8 2v34.5c0 .8-.3 1.5-.8 2-.3.3-19.3-19.3-19.3-19.3s19-19.4 19.3-19.2z"/><path class="moxy-square__st2___1D98W" d="M45.5 94.5c-.5.5-1.2.8-2 .8H9c-.8 0-1.5-.3-2-.8-.3-.3 19.3-19.3 19.3-19.3s19.4 19 19.2 19.3z"/><path class="moxy-square__st3___2-rVC" d="M7 94.5c-.5-.5-.8-1.2-.8-2V57.9c0-.8.3-1.5.8-2 .3-.3 19.3 19.3 19.3 19.3S7.2 94.7 7 94.5z"/><linearGradient id="moxy-square__SVGID_3____18qVw" gradientUnits="userSpaceOnUse" x1="85.481" y1="45.285" x2="93.881" y2="5.763"><stop offset=".002" stop-color="#E7244F"/><stop offset=".621" stop-color="#FD5557"/><stop offset=".852" stop-color="#FD5557"/></linearGradient><path class="moxy-square__st4___3U5VR" d="M70.3 39.6c3.8 3.1 8.6 5 13.9 5 12.1 0 22-9.8 22-22 0-6.1-2.5-11.6-6.4-15.5L70.3 39.6z"/><path class="moxy-square__st2___1D98W" d="M70.3 39.6c-4.9-4-8.1-10.2-8.1-17 0-12.1 9.8-22 22-22C90.3.6 95.8 3 99.8 7L70.3 39.6z"/><path class="moxy-square__st3___2-rVC" d="M55.3 36.2l-17.7-31c-.9-1.6-3.2-1.6-4.1 0l-5.2 9.1L42.9 40h10.3c1.9 0 3.1-2.1 2.1-3.8z"/><linearGradient id="moxy-square__SVGID_4____1OuBH" gradientUnits="userSpaceOnUse" x1="12.768" y1="41.138" x2="17.393" y2="3.466"><stop offset=".002" stop-color="#E7244F"/><stop offset=".746" stop-color="#FD5557"/></linearGradient><path class="moxy-square__st5___1se9n" d="M23.1 5.2c-.9-1.6-3.2-1.6-4.1 0l-17.7 31c-.9 1.7.2 3.8 2.1 3.8h10.3l14.6-25.7-5.2-9.1z"/><path class="moxy-square__st6___1dnoM" d="M13.7 40H43L28.3 14.3z"/><path class="moxy-square__st2___1D98W" d="M70.4 39.7c-4.9-4-8.1-10.2-8.1-17 0-12.1 9.8-22 22-22 6.1 0 11.6 2.5 15.5 6.4L70.4 39.7z"/><linearGradient id="moxy-square__SVGID_5____20Zau" gradientUnits="userSpaceOnUse" x1="1195.376" y1="871.777" x2="1242.133" y2="871.777" gradientTransform="rotate(180 651.432 473.706)"><stop offset=".002" stop-color="#E7244F"/><stop offset=".785" stop-color="#FC5457"/><stop offset=".965" stop-color="#FD5557"/></linearGradient><path class="moxy-square__st7___369xJ" d="M84.1 96.2l23-36.8c1.1-1.9-.2-4.2-2.4-4.2H63.5c-2.2 0-3.5 2.4-2.4 4.2l23 36.8z"/><path class="moxy-square__st3___2-rVC" d="M73.2 78.7l-9 15.8c-.5.8.1 1.7 1 1.7h18.9L73.2 78.7z"/></symbol><symbol id="icon-platforme-os-f75c5" viewBox="0 0 81 72"><style>.platforme-os__st0___-dZYu{fill:#010101}.platforme-os__st1___FgM0-{fill:none;stroke:#231f20;stroke-width:.5;stroke-linecap:round;stroke-miterlimit:10}</style><path class="platforme-os__st0___-dZYu" d="M28.1 70.5c-1.1 0-1.9-.9-1.9-1.9 0-1.1.9-1.9 1.9-1.9 5.5 0 5.8-2.7 5.8-3l.5-5.6H7.1c-2.1 0-3.9-1.7-3.9-3.9V7c0-2.1 1.7-3.9 3.9-3.9h68.7c2.1 0 3.9 1.7 3.9 3.9v47.2c0 2.1-1.7 3.9-3.9 3.9H48.4l.5 5.5c0 .5.5 3.1 5.8 3.1 1.1 0 1.9.9 1.9 1.9 0 1.1-.9 1.9-1.9 1.9H28.1zm18-3.8c-.9-1.4-1-2.7-1-2.9l-.5-5.7h-6.2l-.5 5.9c0 .5-.2 1.6-.9 2.7h9.1zM7.1 7v47.2h68.7V7H7.1z"/><path class="platforme-os__st0___-dZYu" d="M61.6 31.1c-.4-2-2.2-2.6-4.5-3.3-.9-.3-1.8-.5-2.8-1 .1-.4 0-.8-.5-1.2-.3-.2-.6-.3-.9-.3-.2 0-.4.1-.6.4-.2-.1-.5-.3-.7-.4.2-.4.2-.9-.5-1.4-.3-.2-.6-.3-.9-.3-.2 0-.4.1-.6.4l-1-.6c.2-.4.1-.9-.5-1.3-.5 0-.8-.1-1.1-.1-.1 0-.4.1-.5.4l-1-.7c.1-.4.1-.9-.5-1.3-.3-.2-.6-.3-.9-.3-.1 0-.4.1-.5.3L41.1 19c-.6-.4-1.3-.3-1.8.2-1.1 1.1-4 3.6-6.5 3.6-1.6 0-1.9-.9-2.1-2-.2-.9-.5-1.9-1.8-1.9-.5 0-1 .3-1.5.8-.6.7-1.2 2-1.5 3.5-.4 1.9-.6 4.1-.4 6.1l-1 2.8c-.3.7 0 1.5.6 1.9 1 .7 2.8 1.5 5.5 1.5h26c.8 0 2.9-.1 4.2-1.3.7-.6 1-1.5 1-2.5-.1-.2-.1-.4-.2-.6zm-8.8-4.5l.2-.3s.1 0 .2.1l.2.2-.2.3s-.1.1-.2.1h-.2c0-.1-.1-.2 0-.4zm-.9.2c0 .4.1.8.5 1 .2.1.4.2.7.2h.2c.2 0 .4-.1.6-.3 1.1.5 2.1.8 3 1 2.4.7 3.6 1.2 3.9 2.5 0 .1 0 .3-.1.4-1.2 1.1-7.3 1-14.8-.3 1-.8 2.7-2.5 4-5.1.2.1.4.1.6.1h.2c.1 0 .3-.1.4-.1l.1.1c.1.1.4.3.7.5zm-25.6 2.1c-.1-1.6 0-3.5.3-5.1 1.5.5 5.9 2.5 6.9 5.7-3.4-.3-6.2-.5-7.2-.6zM50.1 25l.2-.3s.1 0 .2.1l.2.2-.2.4s-.1.1-.2.1h-.2c-.1-.2-.1-.3 0-.5zM47 23.2l.2-.3s.1 0 .2.1l.2.2-.2.4s-.1.1-.2.1H47c0-.2-.1-.4 0-.5zm-3-1.9l.2-.3s.1 0 .2.1l.2.2-.2.3s-.1.1-.2.1H44c-.1 0-.1-.2 0-.4zm-16-1.1c.3-.3.5-.5.8-.5.5 0 .6.3.9 1.2.3 1 .7 2.7 3.1 2.7 2.7 0 5.7-2.5 7.2-3.9.2-.2.5-.2.7-.1l1.8 1.1c-5 5.2-9.5 5.3-10.4 5.3-1.9-1.7-4.4-2.7-5.3-3.1.3-1.1.7-2.1 1.2-2.7zm28.2 14.4h-2.9v-.3c0-.3-.2-.5-.5-.5s-.5.2-.5.5v.3h-.7v-.3c0-.3-.2-.5-.5-.5s-.5.2-.5.5v.3H50v-.3c0-.3-.2-.5-.5-.5s-.5.2-.5.5v.3h-.7v-.3c0-.3-.2-.5-.5-.5s-.5.2-.5.5v.3h-.7v-.3c0-.3-.2-.5-.5-.5s-.5.2-.5.5v.3h-.7v-.3c0-.3-.2-.5-.5-.5s-.5.2-.5.5v.3h-5.7v-.3c0-.3-.2-.5-.5-.5s-.5.2-.5.5v.3h-.7v-.3c0-.3-.2-.5-.5-.5s-.5.2-.5.5v.3h-.7v-.3c0-.3-.2-.5-.5-.5s-.5.2-.5.5v.3h-.7v-.3c0-.3-.2-.5-.5-.5s-.5.2-.5.5v.3h-.7v-.3c0-.3-.2-.5-.5-.5s-.5.2-.5.5v.3h-.7v-.3c0-.3-.2-.5-.5-.5s-.5.2-.5.5v.2c-1.8-.2-3.1-.8-3.8-1.3-.3-.2-.4-.5-.3-.9l1-2.6c1.9.1 11.4 1 18.3 2.2 1 .2 7 1.3 11.6 1.3 1.8 0 3.5-.2 4.4-.6-.1.3-.3.6-.6.9-.6 1.3-3.1 1.2-3.1 1.1z"/><circle class="platforme-os__st0___-dZYu" cx="18.4" cy="45.5" r="2.9"/><circle class="platforme-os__st1___FgM0-" cx="26.1" cy="45.5" r="2.9"/><path class="platforme-os__st0___-dZYu" d="M57.8 12.8h11.5v5.8H57.8z"/></symbol></defs><view id="view-icon-moxy-square-07d2d" viewBox="0 0 54.55 50"></view><view id="view-icon-platforme-os-f75c5" viewBox="100 0 56.25 50"></view><use id="moxy-square-07d2d" xlink:href="#icon-moxy-square-07d2d" width="54.55" height="50" x="0" y="0"></use><use id="platforme-os-f75c5" xlink:href="#icon-platforme-os-f75c5" width="56.25" height="50" x="100" y="0"></use></svg>
